<svg xmlns="http://www.w3.org/2000/svg" version="1.1" xmlns:xlink="http://www.w3.org/1999/xlink" xmlns:svgjs="http://svgjs.dev/svgjs" width="4096" height="2160" preserveAspectRatio="none" viewBox="0 0 4096 2160"><g mask="url(&quot;#SvgjsMask1060&quot;)" fill="none"><rect width="4096" height="2160" x="0" y="0" fill="rgba(254, 254, 254, 1)"></rect><path d="M4030 475L4029 1027" stroke-width="10" stroke="url(&quot;#SvgjsLinearGradient1061&quot;)" stroke-linecap="round" class="Up"></path><path d="M1077 1553L1076 836" stroke-width="8" stroke="url(&quot;#SvgjsLinearGradient1061&quot;)" stroke-linecap="round" class="Up"></path><path d="M2685 2044L2684 2995" stroke-width="10" stroke="url(&quot;#SvgjsLinearGradient1062&quot;)" stroke-linecap="round" class="Down"></path><path d="M3256 751L3255 -641" stroke-width="10" stroke="url(&quot;#SvgjsLinearGradient1061&quot;)" stroke-linecap="round" class="Up"></path><path d="M2700 1203L2699 142" stroke-width="10" stroke="url(&quot;#SvgjsLinearGradient1061&quot;)" stroke-linecap="round" class="Up"></path><path d="M2059 1310L2058 218" stroke-width="10" stroke="url(&quot;#SvgjsLinearGradient1062&quot;)" stroke-linecap="round" class="Down"></path><path d="M3082 1653L3081 661" stroke-width="6" stroke="url(&quot;#SvgjsLinearGradient1062&quot;)" stroke-linecap="round" class="Down"></path><path d="M1086 857L1085 -153" stroke-width="8" stroke="url(&quot;#SvgjsLinearGradient1061&quot;)" stroke-linecap="round" class="Up"></path><path d="M1231 1254L1230 2614" stroke-width="6" stroke="url(&quot;#SvgjsLinearGradient1061&quot;)" stroke-linecap="round" class="Up"></path><path d="M857 2042L856 1199" stroke-width="10" stroke="url(&quot;#SvgjsLinearGradient1062&quot;)" stroke-linecap="round" class="Down"></path><path d="M2238 1164L2237 2194" stroke-width="6" stroke="url(&quot;#SvgjsLinearGradient1061&quot;)" stroke-linecap="round" class="Up"></path><path d="M3806 299L3805 1700" stroke-width="8" stroke="url(&quot;#SvgjsLinearGradient1061&quot;)" stroke-linecap="round" class="Up"></path><path d="M3589 1717L3588 3223" stroke-width="6" stroke="url(&quot;#SvgjsLinearGradient1061&quot;)" stroke-linecap="round" class="Up"></path><path d="M3808 4L3807 -1042" stroke-width="6" stroke="url(&quot;#SvgjsLinearGradient1061&quot;)" stroke-linecap="round" class="Up"></path><path d="M1794 1134L1793 1786" stroke-width="6" stroke="url(&quot;#SvgjsLinearGradient1062&quot;)" stroke-linecap="round" class="Down"></path><path d="M1465 2035L1464 2619" stroke-width="6" stroke="url(&quot;#SvgjsLinearGradient1062&quot;)" stroke-linecap="round" class="Down"></path><path d="M163 1147L162 -52" stroke-width="6" stroke="url(&quot;#SvgjsLinearGradient1061&quot;)" stroke-linecap="round" class="Up"></path><path d="M139 1719L138 2827" stroke-width="10" stroke="url(&quot;#SvgjsLinearGradient1062&quot;)" stroke-linecap="round" class="Down"></path><path d="M2104 380L2103 1362" stroke-width="8" stroke="url(&quot;#SvgjsLinearGradient1062&quot;)" stroke-linecap="round" class="Down"></path><path d="M3187 1122L3186 2421" stroke-width="10" stroke="url(&quot;#SvgjsLinearGradient1062&quot;)" stroke-linecap="round" class="Down"></path><path d="M3761 2061L3760 3433" stroke-width="8" stroke="url(&quot;#SvgjsLinearGradient1061&quot;)" stroke-linecap="round" class="Up"></path><path d="M3869 1268L3868 142" stroke-width="8" stroke="url(&quot;#SvgjsLinearGradient1061&quot;)" stroke-linecap="round" class="Up"></path><path d="M3100 1676L3099 250" stroke-width="6" stroke="url(&quot;#SvgjsLinearGradient1061&quot;)" stroke-linecap="round" class="Up"></path><path d="M1393 725L1392 -437" stroke-width="8" stroke="url(&quot;#SvgjsLinearGradient1061&quot;)" stroke-linecap="round" class="Up"></path><path d="M1641 509L1640 -708" stroke-width="8" stroke="url(&quot;#SvgjsLinearGradient1062&quot;)" stroke-linecap="round" class="Down"></path><path d="M90 533L89 -769" stroke-width="10" stroke="url(&quot;#SvgjsLinearGradient1061&quot;)" stroke-linecap="round" class="Up"></path><path d="M4055 1324L4054 2467" stroke-width="10" stroke="url(&quot;#SvgjsLinearGradient1061&quot;)" stroke-linecap="round" class="Up"></path><path d="M1266 836L1265 2187" stroke-width="6" stroke="url(&quot;#SvgjsLinearGradient1062&quot;)" stroke-linecap="round" class="Down"></path><path d="M1506 365L1505 -287" stroke-width="10" stroke="url(&quot;#SvgjsLinearGradient1062&quot;)" stroke-linecap="round" class="Down"></path><path d="M2591 1695L2590 1130" stroke-width="6" stroke="url(&quot;#SvgjsLinearGradient1062&quot;)" stroke-linecap="round" class="Down"></path><path d="M3626 753L3625 2156" stroke-width="10" stroke="url(&quot;#SvgjsLinearGradient1062&quot;)" stroke-linecap="round" class="Down"></path><path d="M1138 1091L1137 48" stroke-width="6" stroke="url(&quot;#SvgjsLinearGradient1062&quot;)" stroke-linecap="round" class="Down"></path><path d="M2755 1560L2754 403" stroke-width="8" stroke="url(&quot;#SvgjsLinearGradient1062&quot;)" stroke-linecap="round" class="Down"></path><path d="M737 401L736 -555" stroke-width="10" stroke="url(&quot;#SvgjsLinearGradient1061&quot;)" stroke-linecap="round" class="Up"></path><path d="M2189 68L2188 -715" stroke-width="6" stroke="url(&quot;#SvgjsLinearGradient1061&quot;)" stroke-linecap="round" class="Up"></path><path d="M1982 1254L1981 2093" stroke-width="6" stroke="url(&quot;#SvgjsLinearGradient1062&quot;)" stroke-linecap="round" class="Down"></path><path d="M554 245L553 1395" stroke-width="8" stroke="url(&quot;#SvgjsLinearGradient1061&quot;)" stroke-linecap="round" class="Up"></path><path d="M2623 490L2622 1374" stroke-width="6" stroke="url(&quot;#SvgjsLinearGradient1061&quot;)" stroke-linecap="round" class="Up"></path><path d="M2659 1227L2658 2394" stroke-width="8" stroke="url(&quot;#SvgjsLinearGradient1062&quot;)" stroke-linecap="round" class="Down"></path><path d="M905 1624L904 2738" stroke-width="10" stroke="url(&quot;#SvgjsLinearGradient1062&quot;)" stroke-linecap="round" class="Down"></path><path d="M320 604L319 1996" stroke-width="6" stroke="url(&quot;#SvgjsLinearGradient1061&quot;)" stroke-linecap="round" class="Up"></path><path d="M3309 552L3308 1780" stroke-width="8" stroke="url(&quot;#SvgjsLinearGradient1061&quot;)" stroke-linecap="round" class="Up"></path><path d="M3834 2044L3833 2633" stroke-width="6" stroke="url(&quot;#SvgjsLinearGradient1061&quot;)" stroke-linecap="round" class="Up"></path><path d="M2855 1432L2854 2500" stroke-width="8" stroke="url(&quot;#SvgjsLinearGradient1061&quot;)" stroke-linecap="round" class="Up"></path><path d="M3138 1334L3137 2643" stroke-width="10" stroke="url(&quot;#SvgjsLinearGradient1061&quot;)" stroke-linecap="round" class="Up"></path><path d="M908 368L907 -201" stroke-width="8" stroke="url(&quot;#SvgjsLinearGradient1061&quot;)" stroke-linecap="round" class="Up"></path><path d="M1762 1950L1761 409" stroke-width="10" stroke="url(&quot;#SvgjsLinearGradient1062&quot;)" stroke-linecap="round" class="Down"></path><path d="M3999 1319L3998 2549" stroke-width="8" stroke="url(&quot;#SvgjsLinearGradient1062&quot;)" stroke-linecap="round" class="Down"></path><path d="M1827 443L1826 1991" stroke-width="10" stroke="url(&quot;#SvgjsLinearGradient1061&quot;)" stroke-linecap="round" class="Up"></path><path d="M3253 940L3252 -649" stroke-width="8" stroke="url(&quot;#SvgjsLinearGradient1062&quot;)" stroke-linecap="round" class="Down"></path><path d="M15 1336L14 739" stroke-width="10" stroke="url(&quot;#SvgjsLinearGradient1062&quot;)" stroke-linecap="round" class="Down"></path><path d="M2517 2100L2516 2792" stroke-width="10" stroke="url(&quot;#SvgjsLinearGradient1062&quot;)" stroke-linecap="round" class="Down"></path><path d="M2282 743L2281 -804" stroke-width="10" stroke="url(&quot;#SvgjsLinearGradient1062&quot;)" stroke-linecap="round" class="Down"></path><path d="M1020 820L1019 2148" stroke-width="8" stroke="url(&quot;#SvgjsLinearGradient1062&quot;)" stroke-linecap="round" class="Down"></path><path d="M190 1286L189 12" stroke-width="8" stroke="url(&quot;#SvgjsLinearGradient1061&quot;)" stroke-linecap="round" class="Up"></path><path d="M1019 505L1018 -906" stroke-width="10" stroke="url(&quot;#SvgjsLinearGradient1062&quot;)" stroke-linecap="round" class="Down"></path><path d="M1207 241L1206 1414" stroke-width="10" stroke="url(&quot;#SvgjsLinearGradient1062&quot;)" stroke-linecap="round" class="Down"></path><path d="M4059 679L4058 -875" stroke-width="6" stroke="url(&quot;#SvgjsLinearGradient1062&quot;)" stroke-linecap="round" class="Down"></path><path d="M1419 1455L1418 104" stroke-width="6" stroke="url(&quot;#SvgjsLinearGradient1062&quot;)" stroke-linecap="round" class="Down"></path><path d="M1003 14L1002 776" stroke-width="10" stroke="url(&quot;#SvgjsLinearGradient1061&quot;)" stroke-linecap="round" class="Up"></path><path d="M603 419L602 -1076" stroke-width="10" stroke="url(&quot;#SvgjsLinearGradient1062&quot;)" stroke-linecap="round" class="Down"></path><path d="M3871 172L3870 1573" stroke-width="8" stroke="url(&quot;#SvgjsLinearGradient1061&quot;)" stroke-linecap="round" class="Up"></path><path d="M1539 1692L1538 951" stroke-width="10" stroke="url(&quot;#SvgjsLinearGradient1062&quot;)" stroke-linecap="round" class="Down"></path><path d="M3555 155L3554 -1028" stroke-width="6" stroke="url(&quot;#SvgjsLinearGradient1061&quot;)" stroke-linecap="round" class="Up"></path><path d="M2326 52L2325 -906" stroke-width="6" stroke="url(&quot;#SvgjsLinearGradient1061&quot;)" stroke-linecap="round" class="Up"></path><path d="M3927 1875L3926 3076" stroke-width="6" stroke="url(&quot;#SvgjsLinearGradient1061&quot;)" stroke-linecap="round" class="Up"></path><path d="M1359 190L1358 1166" stroke-width="10" stroke="url(&quot;#SvgjsLinearGradient1061&quot;)" stroke-linecap="round" class="Up"></path><path d="M294 423L293 -409" stroke-width="10" stroke="url(&quot;#SvgjsLinearGradient1061&quot;)" stroke-linecap="round" class="Up"></path><path d="M892 639L891 1552" stroke-width="10" stroke="url(&quot;#SvgjsLinearGradient1062&quot;)" stroke-linecap="round" class="Down"></path><path d="M1267 866L1266 -42" stroke-width="6" stroke="url(&quot;#SvgjsLinearGradient1061&quot;)" stroke-linecap="round" class="Up"></path><path d="M1135 2017L1134 3441" stroke-width="10" stroke="url(&quot;#SvgjsLinearGradient1061&quot;)" stroke-linecap="round" class="Up"></path><path d="M3321 405L3320 966" stroke-width="8" stroke="url(&quot;#SvgjsLinearGradient1062&quot;)" stroke-linecap="round" class="Down"></path><path d="M1743 374L1742 1341" stroke-width="10" stroke="url(&quot;#SvgjsLinearGradient1062&quot;)" stroke-linecap="round" class="Down"></path><path d="M1682 750L1681 3" stroke-width="6" stroke="url(&quot;#SvgjsLinearGradient1061&quot;)" stroke-linecap="round" class="Up"></path><path d="M3914 1863L3913 2490" stroke-width="8" stroke="url(&quot;#SvgjsLinearGradient1062&quot;)" stroke-linecap="round" class="Down"></path><path d="M637 191L636 -358" stroke-width="10" stroke="url(&quot;#SvgjsLinearGradient1062&quot;)" stroke-linecap="round" class="Down"></path><path d="M2915 1309L2914 165" stroke-width="10" stroke="url(&quot;#SvgjsLinearGradient1061&quot;)" stroke-linecap="round" class="Up"></path><path d="M828 145L827 842" stroke-width="8" stroke="url(&quot;#SvgjsLinearGradient1062&quot;)" stroke-linecap="round" class="Down"></path><path d="M1658 1174L1657 2336" stroke-width="8" stroke="url(&quot;#SvgjsLinearGradient1062&quot;)" stroke-linecap="round" class="Down"></path><path d="M3356 991L3355 2468" stroke-width="10" stroke="url(&quot;#SvgjsLinearGradient1061&quot;)" stroke-linecap="round" class="Up"></path><path d="M2760 1050L2759 -157" stroke-width="8" stroke="url(&quot;#SvgjsLinearGradient1061&quot;)" stroke-linecap="round" class="Up"></path><path d="M2280 269L2279 -503" stroke-width="10" stroke="url(&quot;#SvgjsLinearGradient1061&quot;)" stroke-linecap="round" class="Up"></path><path d="M3550 846L3549 -319" stroke-width="8" stroke="url(&quot;#SvgjsLinearGradient1062&quot;)" stroke-linecap="round" class="Down"></path><path d="M3752 2150L3751 909" stroke-width="10" stroke="url(&quot;#SvgjsLinearGradient1062&quot;)" stroke-linecap="round" class="Down"></path><path d="M401 1611L400 2481" stroke-width="6" stroke="url(&quot;#SvgjsLinearGradient1061&quot;)" stroke-linecap="round" class="Up"></path><path d="M3315 858L3314 2013" stroke-width="6" stroke="url(&quot;#SvgjsLinearGradient1062&quot;)" stroke-linecap="round" class="Down"></path><path d="M3918 1526L3917 643" stroke-width="10" stroke="url(&quot;#SvgjsLinearGradient1062&quot;)" stroke-linecap="round" class="Down"></path><path d="M3187 1861L3186 592" stroke-width="8" stroke="url(&quot;#SvgjsLinearGradient1061&quot;)" stroke-linecap="round" class="Up"></path><path d="M3556 1250L3555 -102" stroke-width="8" stroke="url(&quot;#SvgjsLinearGradient1062&quot;)" stroke-linecap="round" class="Down"></path><path d="M2087 1528L2086 2954" stroke-width="10" stroke="url(&quot;#SvgjsLinearGradient1062&quot;)" stroke-linecap="round" class="Down"></path><path d="M3822 1066L3821 -401" stroke-width="8" stroke="url(&quot;#SvgjsLinearGradient1062&quot;)" stroke-linecap="round" class="Down"></path><path d="M2680 922L2679 2467" stroke-width="10" stroke="url(&quot;#SvgjsLinearGradient1062&quot;)" stroke-linecap="round" class="Down"></path><path d="M3905 547L3904 1198" stroke-width="8" stroke="url(&quot;#SvgjsLinearGradient1062&quot;)" stroke-linecap="round" class="Down"></path><path d="M3214 886L3213 1689" stroke-width="8" stroke="url(&quot;#SvgjsLinearGradient1061&quot;)" stroke-linecap="round" class="Up"></path><path d="M1958 1034L1957 2358" stroke-width="6" stroke="url(&quot;#SvgjsLinearGradient1061&quot;)" stroke-linecap="round" class="Up"></path><path d="M3012 1217L3011 1981" stroke-width="6" stroke="url(&quot;#SvgjsLinearGradient1061&quot;)" stroke-linecap="round" class="Up"></path><path d="M2593 421L2592 1397" stroke-width="8" stroke="url(&quot;#SvgjsLinearGradient1062&quot;)" stroke-linecap="round" class="Down"></path><path d="M2546 2147L2545 1459" stroke-width="6" stroke="url(&quot;#SvgjsLinearGradient1062&quot;)" stroke-linecap="round" class="Down"></path><path d="M1378 34L1377 906" stroke-width="8" stroke="url(&quot;#SvgjsLinearGradient1061&quot;)" stroke-linecap="round" class="Up"></path><path d="M3296 787L3295 -332" stroke-width="6" stroke="url(&quot;#SvgjsLinearGradient1061&quot;)" stroke-linecap="round" class="Up"></path><path d="M2242 1517L2241 618" stroke-width="8" stroke="url(&quot;#SvgjsLinearGradient1062&quot;)" stroke-linecap="round" class="Down"></path><path d="M4048 858L4047 -4" stroke-width="8" stroke="url(&quot;#SvgjsLinearGradient1062&quot;)" stroke-linecap="round" class="Down"></path><path d="M219 1604L218 718" stroke-width="8" stroke="url(&quot;#SvgjsLinearGradient1062&quot;)" stroke-linecap="round" class="Down"></path></g><defs><mask id="SvgjsMask1060"><rect width="4096" height="2160" fill="#ffffff"></rect></mask><linearGradient x1="0%" y1="100%" x2="0%" y2="0%" id="SvgjsLinearGradient1061"><stop stop-color="rgba(244, 249, 255, 0)" offset="0"></stop><stop stop-color="rgba(244, 249, 255, 1)" offset="1"></stop></linearGradient><linearGradient x1="0%" y1="0%" x2="0%" y2="100%" id="SvgjsLinearGradient1062"><stop stop-color="rgba(244, 249, 255, 0)" offset="0"></stop><stop stop-color="rgba(244, 249, 255, 1)" offset="1"></stop></linearGradient></defs></svg>